<svg width="55" height="53" viewBox="0 0 55 53" fill="none" xmlns="http://www.w3.org/2000/svg">
<path fill-rule="evenodd" clip-rule="evenodd" d="M7.77712 39.0763C7.58758 39.6058 7.69345 40.1928 8.05546 40.6319C12.3996 45.8955 19.4024 49.3305 27.3052 49.3305C35.208 49.3305 42.2108 45.8955 46.5549 40.6319C46.917 40.1928 47.0211 39.6058 46.8333 39.0763C44.207 31.7014 36.4682 26.3096 27.3052 26.3096C18.1422 26.3096 10.4034 31.7014 7.77712 39.0763Z" fill="white"/>
<path d="M27.3061 23.021C32.9646 23.021 37.5517 18.6038 37.5517 13.1549C37.5517 7.70603 32.9646 3.28882 27.3061 3.28882C21.6476 3.28882 17.0605 7.70603 17.0605 13.1549C17.0605 18.6038 21.6476 23.021 27.3061 23.021Z" fill="white"/>
</svg>
