<svg width="24" height="25" viewBox="0 0 24 25" fill="none" xmlns="http://www.w3.org/2000/svg">
<path d="M4.26646 17.4644H12.0647C12.4498 19.1743 13.9902 20.482 15.8195 20.482C17.6487 20.482 19.0928 19.1743 19.5742 17.4644H19.6705C20.2481 17.4644 20.6332 17.062 20.6332 16.4585C20.6332 15.855 20.2481 15.4527 19.6705 15.4527H19.5742C19.1891 13.7427 17.6487 12.4351 15.8195 12.4351C13.9902 12.4351 12.5461 13.7427 12.0647 15.4527H4.26646C3.68881 15.4527 3.30371 15.855 3.30371 16.4585C3.30371 17.062 3.68881 17.4644 4.26646 17.4644ZM15.8195 14.4468C16.8785 14.4468 17.745 15.3521 17.745 16.4585C17.745 17.565 16.8785 18.4702 15.8195 18.4702C14.7604 18.4702 13.894 17.565 13.894 16.4585C13.894 15.3521 14.7604 14.4468 15.8195 14.4468Z" fill="#696969"/>
<path d="M4.26646 9.41751H4.36274C4.74784 11.1275 6.28824 12.4351 8.11746 12.4351C9.94669 12.4351 11.3908 11.1275 11.8722 9.41751H19.6705C20.2481 9.41751 20.6332 9.01516 20.6332 8.41164C20.6332 7.80812 20.2481 7.40578 19.6705 7.40578H11.8722C11.4871 5.69581 9.94669 4.38818 8.11746 4.38818C6.28824 4.38818 4.84411 5.69581 4.36274 7.40578H4.26646C3.68881 7.40578 3.30371 7.80812 3.30371 8.41164C3.30371 9.01516 3.68881 9.41751 4.26646 9.41751ZM8.11746 6.39991C9.17649 6.39991 10.043 7.30519 10.043 8.41164C10.043 9.51809 9.17649 10.4234 8.11746 10.4234C7.05844 10.4234 6.19196 9.51809 6.19196 8.41164C6.19196 7.30519 7.05844 6.39991 8.11746 6.39991Z" fill="#696969"/>
</svg>
