<svg width="39" height="39" viewBox="0 0 39 39" fill="none" xmlns="http://www.w3.org/2000/svg">
<circle cx="19.5" cy="19.5" r="19.5" fill="#012171"/>
<path d="M10.1695 13.2V13H13.7295V24.36C13.7295 25.4133 13.5162 26.12 13.0895 26.48C12.6629 26.8267 12.0162 27 11.1495 27C10.2962 27 9.5362 26.8733 8.86953 26.62L8.92953 26.46C9.56953 26.7133 10.2295 26.84 10.9095 26.84C11.3629 26.84 11.6629 26.6467 11.8095 26.26C11.9695 25.8733 12.0495 25.2467 12.0495 24.38V13.2H10.1695ZM16.3289 27.08C16.1556 27.08 16.0022 27.02 15.8689 26.9C15.7489 26.7667 15.6889 26.6133 15.6889 26.44C15.6889 26.2533 15.7489 26.1 15.8689 25.98C15.9889 25.86 16.1356 25.8 16.3089 25.8C16.4956 25.8 16.6489 25.8667 16.7689 26C16.9022 26.12 16.9689 26.2667 16.9689 26.44C16.9689 26.6133 16.9022 26.7667 16.7689 26.9C16.6489 27.02 16.5022 27.08 16.3289 27.08ZM18.3359 20.34C18.3359 17.9133 18.9226 16.0733 20.0959 14.82C21.2826 13.5533 22.8026 12.92 24.6559 12.92C26.5093 12.92 27.9826 13.4667 29.0759 14.56C30.1826 15.6533 30.7359 17.4 30.7359 19.8C30.7359 22.2 30.1493 24.0133 28.9759 25.24C27.8026 26.4667 26.2359 27.08 24.2759 27.08C22.5826 27.08 21.1959 26.5933 20.1159 25.62C19.5559 25.1133 19.1159 24.4133 18.7959 23.52C18.4893 22.6133 18.3359 21.5533 18.3359 20.34ZM24.5959 13.12C23.2493 13.12 22.1426 13.72 21.2759 14.92C20.4226 16.12 19.9959 17.88 19.9959 20.2C19.9959 22.52 20.4026 24.2133 21.2159 25.28C22.0293 26.3467 23.1093 26.88 24.4559 26.88C25.8159 26.88 26.9226 26.28 27.7759 25.08C28.6426 23.8667 29.0759 22.1133 29.0759 19.82C29.0759 17.5133 28.6626 15.82 27.8359 14.74C27.0226 13.66 25.9426 13.12 24.5959 13.12Z" fill="white"/>
</svg>
