<svg width="24" height="25" viewBox="0 0 24 25" fill="none" xmlns="http://www.w3.org/2000/svg">
<g clip-path="url(#clip0_1835_3582)">
<path d="M23.0333 4.57176C23.0333 3.74042 22.382 3.06647 21.5786 3.06647H17.9168C17.304 1.26752 15.6637 0.0620234 13.8204 0.0559082H10.9111C9.06783 0.0620234 7.42756 1.26752 6.81479 3.06647H3.1529C2.34952 3.06647 1.69824 3.74042 1.69824 4.57176C1.69824 5.4031 2.34952 6.07704 3.1529 6.07704H3.63781V18.6211C3.63781 21.6693 6.02581 24.1404 8.97155 24.1404H15.76C18.7057 24.1404 21.0937 21.6693 21.0937 18.6211V6.07704H21.5786C22.382 6.07704 23.0333 5.4031 23.0333 4.57176ZM18.1844 18.6211C18.1844 20.0067 17.099 21.1299 15.76 21.1299H8.97155C7.63258 21.1299 6.54713 20.0067 6.54713 18.6211V6.07704H18.1844V18.6211Z" fill="#012171"/>
<path d="M9.94099 18.1193C10.7444 18.1193 11.3957 17.4454 11.3957 16.6141V10.5929C11.3957 9.76159 10.7444 9.08765 9.94099 9.08765C9.13761 9.08765 8.48633 9.76159 8.48633 10.5929V16.6141C8.48633 17.4454 9.13761 18.1193 9.94099 18.1193Z" fill="#012171"/>
<path d="M14.7906 18.1193C15.594 18.1193 16.2453 17.4454 16.2453 16.6141V10.5929C16.2453 9.76159 15.594 9.08765 14.7906 9.08765C13.9872 9.08765 13.3359 9.76159 13.3359 10.5929V16.6141C13.3359 17.4454 13.9872 18.1193 14.7906 18.1193Z" fill="#012171"/>
</g>
<defs>
<clipPath id="clip0_1835_3582">
<rect width="23.2746" height="24.0845" fill="white" transform="translate(0.728516 0.0559082)"/>
</clipPath>
</defs>
</svg>
