<?xml version="1.0" encoding="UTF-8"?>
<!DOCTYPE svg PUBLIC "-//W3C//DTD SVG 1.1//EN" "http://www.w3.org/Graphics/SVG/1.1/DTD/svg11.dtd">
<svg xmlns="http://www.w3.org/2000/svg" version="1.1" width="512px" height="512px" style="shape-rendering:geometricPrecision; text-rendering:geometricPrecision; image-rendering:optimizeQuality; fill-rule:evenodd; clip-rule:evenodd" xmlns:xlink="http://www.w3.org/1999/xlink">
<g><path style="opacity:0.845" fill="#5e6174" d="M 134.5,35.5 C 136.833,35.5 139.167,35.5 141.5,35.5C 141.5,40.8333 141.5,46.1667 141.5,51.5C 139.167,51.5 136.833,51.5 134.5,51.5C 134.5,46.1667 134.5,40.8333 134.5,35.5 Z"/></g>
<g><path style="opacity:0.947" fill="#5d6075" d="M 115.5,46.5 C 116.552,46.3505 117.552,46.5172 118.5,47C 121.667,50.1667 124.833,53.3333 128,56.5C 127.628,58.92 126.295,60.92 124,62.5C 120.333,58.8333 116.667,55.1667 113,51.5C 113.058,49.5646 113.891,47.8979 115.5,46.5 Z"/></g>
<g><path style="opacity:0.967" fill="#606377" d="M 157.5,61.5 C 209.501,61.3333 261.501,61.5 313.5,62C 328.256,65.0899 337.422,73.9232 341,88.5C 341.5,174.833 341.667,261.166 341.5,347.5C 352.816,349.244 362.983,353.577 372,360.5C 386.849,353.463 399.183,356.463 409,369.5C 415.765,385.206 411.931,397.539 397.5,406.5C 397.307,444.502 378.974,468.336 342.5,478C 310.62,482.06 286.954,470.227 271.5,442.5C 233.504,441.667 195.504,441.167 157.5,441C 142.771,437.937 133.604,429.104 130,414.5C 129.833,378.829 129.333,343.162 128.5,307.5C 115.295,309.144 107.628,303.311 105.5,290C 105.816,285.901 106.983,282.067 109,278.5C 115.667,271.833 122.333,265.167 129,258.5C 129.333,201.833 129.667,145.167 130,88.5C 133.783,73.8829 142.949,64.8829 157.5,61.5 Z"/></g>
<g><path style="opacity:1" fill="#cacedd" d="M 335.5,334.5 C 331.167,334.5 326.833,334.5 322.5,334.5C 322.833,252.998 322.499,171.665 321.5,90.5C 320.476,86.6381 318.143,83.8048 314.5,82C 300.833,81.3333 287.167,81.3333 273.5,82C 270.273,85.0998 268.44,88.9331 268,93.5C 266.786,95.0488 265.286,96.2155 263.5,97C 244.833,97.6667 226.167,97.6667 207.5,97C 202.886,94.6101 200.719,90.7768 201,85.5C 199.833,84.3333 198.667,83.1667 197.5,82C 183.833,81.3333 170.167,81.3333 156.5,82C 152.942,83.8917 150.442,86.7251 149,90.5C 148.168,140.002 148.335,189.335 149.5,238.5C 145.833,242.833 141.833,246.833 137.5,250.5C 136.501,197.336 136.168,144.003 136.5,90.5C 139.078,80.0846 145.411,72.9179 155.5,69C 208.833,68.3333 262.167,68.3333 315.5,69C 325.719,72.2541 332.219,79.0874 335,89.5C 335.5,171.166 335.667,252.833 335.5,334.5 Z"/></g>
<g><path style="opacity:0.828" fill="#5d6074" d="M 101.5,69.5 C 107.167,69.5 112.833,69.5 118.5,69.5C 118.5,71.8333 118.5,74.1667 118.5,76.5C 112.833,76.5 107.167,76.5 101.5,76.5C 101.5,74.1667 101.5,71.8333 101.5,69.5 Z"/></g>
<g><path style="opacity:1" fill="#f4f4f4" d="M 321.5,90.5 C 321.5,172.167 321.5,253.833 321.5,335.5C 319.143,335.337 316.81,335.503 314.5,336C 310.996,336.986 307.663,338.153 304.5,339.5C 288.05,344.723 275.383,354.723 266.5,369.5C 261.116,376.268 257.282,383.935 255,392.5C 253.048,402.062 252.215,411.729 252.5,421.5C 220.498,421.667 188.498,421.5 156.5,421C 153.667,419.5 151.5,417.333 150,414.5C 148.358,376.213 148.024,337.88 149,299.5C 159.667,288.833 170.333,278.167 181,267.5C 183.687,263.246 185.187,258.579 185.5,253.5C 186.167,251.833 186.833,250.167 187.5,248.5C 190.18,245.987 193.013,243.654 196,241.5C 215.118,255.16 235.952,258.327 258.5,251C 279.961,242.381 293.294,226.881 298.5,204.5C 310.016,171.223 302.016,143.723 274.5,122C 242.968,103.932 213.801,107.099 187,131.5C 168.599,152.833 164.265,176.833 174,203.5C 176.246,208.326 178.746,212.992 181.5,217.5C 179.016,220.484 176.35,223.318 173.5,226C 168.57,225.955 163.903,226.955 159.5,229C 156.297,232.371 152.964,235.538 149.5,238.5C 148.335,189.335 148.168,140.002 149,90.5C 150.442,86.7251 152.942,83.8917 156.5,82C 170.167,81.3333 183.833,81.3333 197.5,82C 198.667,83.1667 199.833,84.3333 201,85.5C 200.719,90.7768 202.886,94.6101 207.5,97C 226.167,97.6667 244.833,97.6667 263.5,97C 265.286,96.2155 266.786,95.0488 268,93.5C 268.44,88.9331 270.273,85.0998 273.5,82C 287.167,81.3333 300.833,81.3333 314.5,82C 318.143,83.8048 320.476,86.6381 321.5,90.5 Z"/></g>
<g><path style="opacity:1" fill="#a5a8b9" d="M 136.5,90.5 C 136.168,144.003 136.501,197.336 137.5,250.5C 137.217,251.289 136.717,251.956 136,252.5C 135.168,198.332 135.335,144.332 136.5,90.5 Z"/></g>
<g><path style="opacity:1" fill="#c8ccdb" d="M 225.5,116.5 C 262.743,114.346 286.576,131.013 297,166.5C 300.121,201.015 285.621,224.515 253.5,237C 232.042,242.609 212.708,238.442 195.5,224.5C 191.167,228.5 186.833,232.5 182.5,236.5C 180.5,235.167 178.833,233.5 177.5,231.5C 181.5,227.167 185.5,222.833 189.5,218.5C 175.341,200.202 171.508,179.869 178,157.5C 186.972,135.683 202.805,122.016 225.5,116.5 Z"/></g>
<g><path style="opacity:1" fill="#626579" d="M 226.5,129.5 C 255.734,127.274 274.9,139.941 284,167.5C 287.03,199.638 272.863,219.138 241.5,226C 221.72,227.192 206.22,219.692 195,203.5C 182.383,179.596 185.883,158.429 205.5,140C 212.045,135.394 219.045,131.894 226.5,129.5 Z"/></g>
<g><path style="opacity:1" fill="#f2f2f3" d="M 227.5,135.5 C 253.256,133.122 270.089,144.122 278,168.5C 279.827,203.339 263.327,220.506 228.5,220C 211.512,215.679 200.346,205.179 195,188.5C 191.264,161.764 202.098,144.097 227.5,135.5 Z"/></g>
<g><path style="opacity:1" fill="#092473" d="M 228.5,164.5 C 225.167,164.5 221.833,164.5 218.5,164.5C 218.5,163.167 218.5,161.833 218.5,160.5C 223.674,147.59 232.674,144.09 245.5,150C 256.733,161.605 255.899,172.439 243,182.5C 241.798,184.677 241.298,187.011 241.5,189.5C 237.833,189.5 234.167,189.5 230.5,189.5C 229.97,184.713 231.137,180.38 234,176.5C 238.092,173.434 240.926,169.601 242.5,165C 241.259,158.546 237.593,156.546 231.5,159C 229.393,160.264 228.393,162.097 228.5,164.5 Z"/></g>
<g><path style="opacity:1" fill="#6f80ac" d="M 218.5,160.5 C 218.5,161.833 218.5,163.167 218.5,164.5C 221.833,164.5 225.167,164.5 228.5,164.5C 225.038,165.482 221.371,165.815 217.5,165.5C 217.216,163.585 217.549,161.919 218.5,160.5 Z"/></g>
<g><path style="opacity:0.93" fill="#5d6074" d="M 369.5,172.5 C 381.563,171.728 385.23,176.895 380.5,188C 370.317,192.733 365.15,189.567 365,178.5C 365.804,175.854 367.304,173.854 369.5,172.5 Z M 372.5,179.5 C 373.5,179.5 374.5,179.5 375.5,179.5C 375.498,183.541 374.165,184.208 371.5,181.5C 371.863,180.817 372.196,180.15 372.5,179.5 Z"/></g>
<g><path style="opacity:1" fill="#072473" d="M 230.5,197.5 C 233.833,197.5 237.167,197.5 240.5,197.5C 240.5,201.167 240.5,204.833 240.5,208.5C 237.167,208.5 233.833,208.5 230.5,208.5C 230.5,204.833 230.5,201.167 230.5,197.5 Z"/></g>
<g><path style="opacity:0.903" fill="#5d6074" d="M 396.5,211.5 C 407.824,210.326 412.991,215.326 412,226.5C 406.884,235.257 400.218,236.59 392,230.5C 387.751,222.697 389.251,216.364 396.5,211.5 Z M 398.5,218.5 C 403.501,217.671 405.668,219.671 405,224.5C 402.333,228.5 399.667,228.5 397,224.5C 396.252,222.16 396.752,220.16 398.5,218.5 Z"/></g>
<g><path style="opacity:1" fill="#cbd0dd" d="M 298.5,204.5 C 293.294,226.881 279.961,242.381 258.5,251C 235.952,258.327 215.118,255.16 196,241.5C 193.013,243.654 190.18,245.987 187.5,248.5C 187.336,245.813 187.503,243.146 188,240.5C 190.682,237.65 193.516,234.984 196.5,232.5C 225.288,250.758 253.288,249.591 280.5,229C 288.324,222.033 294.324,213.867 298.5,204.5 Z"/></g>
<g><path style="opacity:1" fill="#cacedc" d="M 185.5,253.5 C 185.187,258.579 183.687,263.246 181,267.5C 170.333,278.167 159.667,288.833 149,299.5C 148.024,337.88 148.358,376.213 150,414.5C 151.5,417.333 153.667,419.5 156.5,421C 188.498,421.5 220.498,421.667 252.5,421.5C 252.215,411.729 253.048,402.062 255,392.5C 257.282,383.935 261.116,376.268 266.5,369.5C 266.174,378.017 266.507,386.35 267.5,394.5C 265.472,404.353 264.972,414.353 266,424.5C 266.679,427.55 267.512,430.55 268.5,433.5C 230.838,434.667 193.171,434.833 155.5,434C 144.623,429.791 138.123,421.957 136,410.5C 135.333,374.833 135.333,339.167 136,303.5C 152.729,286.938 169.229,270.272 185.5,253.5 Z"/></g>
<g><path style="opacity:1" fill="#cacfdd" d="M 194.5,267.5 C 222.5,267.5 250.5,267.5 278.5,267.5C 278.5,271.167 278.5,274.833 278.5,278.5C 250.5,278.5 222.5,278.5 194.5,278.5C 194.5,274.833 194.5,271.167 194.5,267.5 Z"/></g>
<g><path style="opacity:1" fill="#cacfdd" d="M 194.5,299.5 C 205.5,299.5 216.5,299.5 227.5,299.5C 227.5,303.167 227.5,306.833 227.5,310.5C 216.5,310.5 205.5,310.5 194.5,310.5C 194.5,306.833 194.5,303.167 194.5,299.5 Z"/></g>
<g><path style="opacity:1" fill="#cacfdd" d="M 242.5,299.5 C 254.5,299.5 266.5,299.5 278.5,299.5C 278.5,303.167 278.5,306.833 278.5,310.5C 266.5,310.5 254.5,310.5 242.5,310.5C 242.5,306.833 242.5,303.167 242.5,299.5 Z"/></g>
<g><path style="opacity:0.827" fill="#a9afc4" d="M 109.5,328.5 C 111.833,328.5 114.167,328.5 116.5,328.5C 116.5,330.833 116.5,333.167 116.5,335.5C 114.167,335.5 111.833,335.5 109.5,335.5C 109.5,333.167 109.5,330.833 109.5,328.5 Z"/></g>
<g><path style="opacity:1" fill="#aab0c5" d="M 209.5,334.5 C 227.17,334.333 244.836,334.5 262.5,335C 272.792,339.208 275.625,346.374 271,356.5C 268.559,358.969 265.726,360.802 262.5,362C 244.833,362.667 227.167,362.667 209.5,362C 200.028,357.249 197.528,350.082 202,340.5C 204.114,337.879 206.614,335.879 209.5,334.5 Z"/></g>
<g><path style="opacity:1" fill="#e5e8ec" d="M 321.5,90.5 C 322.499,171.665 322.833,252.998 322.5,334.5C 326.833,334.5 331.167,334.5 335.5,334.5C 335.5,338.833 335.5,343.167 335.5,347.5C 325.988,347.01 316.655,348.01 307.5,350.5C 307.125,346.558 306.125,342.891 304.5,339.5C 307.663,338.153 310.996,336.986 314.5,336C 316.81,335.503 319.143,335.337 321.5,335.5C 321.5,253.833 321.5,172.167 321.5,90.5 Z"/></g>
<g><path style="opacity:0.827" fill="#a9afc4" d="M 109.5,344.5 C 111.833,344.5 114.167,344.5 116.5,344.5C 116.5,346.833 116.5,349.167 116.5,351.5C 114.167,351.5 111.833,351.5 109.5,351.5C 109.5,349.167 109.5,346.833 109.5,344.5 Z"/></g>
<g><path style="opacity:1" fill="#d6dae3" d="M 304.5,339.5 C 306.125,342.891 307.125,346.558 307.5,350.5C 287.531,359.135 274.198,373.802 267.5,394.5C 266.507,386.35 266.174,378.017 266.5,369.5C 275.383,354.723 288.05,344.723 304.5,339.5 Z"/></g>
<g><path style="opacity:1" fill="#f2f2f3" d="M 318.5,353.5 C 335.535,351.224 351.201,354.724 365.5,364C 366.022,364.561 366.355,365.228 366.5,366C 357.432,380.047 359.098,392.713 371.5,404C 377.273,407.845 383.607,409.345 390.5,408.5C 390.139,440.401 374.805,461.234 344.5,471C 309.563,476.119 285.729,462.286 273,429.5C 266.43,390.952 281.596,365.619 318.5,353.5 Z"/></g>
<g><path style="opacity:0.827" fill="#a9afc4" d="M 109.5,360.5 C 111.833,360.5 114.167,360.5 116.5,360.5C 116.5,362.833 116.5,365.167 116.5,367.5C 114.167,367.5 111.833,367.5 109.5,367.5C 109.5,365.167 109.5,362.833 109.5,360.5 Z"/></g>
<g><path style="opacity:1" fill="#eeeff0" d="M 380.5,363.5 C 399.983,362.497 407.816,371.497 404,390.5C 397.663,401.712 388.496,404.879 376.5,400C 365.958,392.455 363.792,382.955 370,371.5C 372.975,367.952 376.475,365.286 380.5,363.5 Z"/></g>
<g><path style="opacity:1" fill="#052272" d="M 326.5,370.5 C 341.403,370.95 347.903,378.617 346,393.5C 344.141,399.36 340.307,403.193 334.5,405C 343.335,404.573 350.835,407.406 357,413.5C 358.439,415.275 359.439,417.275 360,419.5C 360.667,428.167 360.667,436.833 360,445.5C 348.527,455.098 335.36,458.598 320.5,456C 313.187,453.928 306.687,450.428 301,445.5C 300.333,436.833 300.333,428.167 301,419.5C 305.651,408.918 313.817,404.085 325.5,405C 318.178,401.498 314.845,395.665 315.5,387.5C 315.532,379.471 319.198,373.804 326.5,370.5 Z"/></g>
<g><path style="opacity:1" fill="#0d2674" d="M 380.5,372.5 C 382.463,373.96 384.296,375.627 386,377.5C 387.667,375.833 389.333,374.167 391,372.5C 392.684,374.351 394.517,376.018 396.5,377.5C 395.018,379.483 393.351,381.316 391.5,383C 393.167,384.667 394.833,386.333 396.5,388C 394.92,390.295 392.92,391.628 390.5,392C 389.315,390.647 387.981,389.48 386.5,388.5C 384.796,390.041 382.963,391.375 381,392.5C 377.969,391.494 376.635,389.494 377,386.5C 378.353,385.315 379.52,383.981 380.5,382.5C 379.167,380.833 377.833,379.167 376.5,377.5C 377.857,375.814 379.19,374.148 380.5,372.5 Z"/></g>
<g><path style="opacity:0.827" fill="#a9afc4" d="M 109.5,376.5 C 111.833,376.5 114.167,376.5 116.5,376.5C 116.5,378.833 116.5,381.167 116.5,383.5C 114.167,383.5 111.833,383.5 109.5,383.5C 109.5,381.167 109.5,378.833 109.5,376.5 Z"/></g>
<g><path style="opacity:0.827" fill="#a9afc4" d="M 109.5,392.5 C 111.833,392.5 114.167,392.5 116.5,392.5C 116.5,394.833 116.5,397.167 116.5,399.5C 114.167,399.5 111.833,399.5 109.5,399.5C 109.5,397.167 109.5,394.833 109.5,392.5 Z"/></g>
<g><path style="opacity:0.93" fill="#a9afc3" d="M 109.5,408.5 C 111.833,408.5 114.167,408.5 116.5,408.5C 118.918,414.422 116.918,416.755 110.5,415.5C 110.007,413.194 109.674,410.861 109.5,408.5 Z"/></g>
<g><path style="opacity:0.861" fill="#aab0c4" d="M 115.5,423.5 C 118.94,423.337 120.94,425.004 121.5,428.5C 116.061,433.11 113.061,431.776 112.5,424.5C 113.791,424.737 114.791,424.404 115.5,423.5 Z"/></g>
<g><path style="opacity:0.851" fill="#abb0c4" d="M 124.5,436.5 C 131.605,438.9 131.939,441.9 125.5,445.5C 123.5,444.167 121.833,442.5 120.5,440.5C 121.867,439.16 123.2,437.827 124.5,436.5 Z"/></g>
<g><path style="opacity:0.856" fill="#a9afc3" d="M 136.5,446.5 C 143.643,447.61 144.476,450.61 139,455.5C 136.863,454.521 135.029,453.188 133.5,451.5C 134.26,449.64 135.26,447.973 136.5,446.5 Z"/></g>
<g><path style="opacity:0.871" fill="#aab0c3" d="M 149.5,452.5 C 156.417,451.661 158.25,454.328 155,460.5C 153,459.833 151,459.167 149,458.5C 149.135,456.575 149.302,454.575 149.5,452.5 Z"/></g>
<g><path style="opacity:0.787" fill="#a9aec3" d="M 165.5,453.5 C 167.833,453.5 170.167,453.5 172.5,453.5C 172.5,455.833 172.5,458.167 172.5,460.5C 170.167,460.5 167.833,460.5 165.5,460.5C 165.5,458.167 165.5,455.833 165.5,453.5 Z"/></g>
<g><path style="opacity:0.787" fill="#a9aec3" d="M 181.5,453.5 C 183.833,453.5 186.167,453.5 188.5,453.5C 188.5,455.833 188.5,458.167 188.5,460.5C 186.167,460.5 183.833,460.5 181.5,460.5C 181.5,458.167 181.5,455.833 181.5,453.5 Z"/></g>
<g><path style="opacity:0.787" fill="#a9aec3" d="M 197.5,453.5 C 199.833,453.5 202.167,453.5 204.5,453.5C 204.5,455.833 204.5,458.167 204.5,460.5C 202.167,460.5 199.833,460.5 197.5,460.5C 197.5,458.167 197.5,455.833 197.5,453.5 Z"/></g>
<g><path style="opacity:0.787" fill="#a9aec3" d="M 213.5,453.5 C 215.833,453.5 218.167,453.5 220.5,453.5C 220.5,455.833 220.5,458.167 220.5,460.5C 218.167,460.5 215.833,460.5 213.5,460.5C 213.5,458.167 213.5,455.833 213.5,453.5 Z"/></g>
<g><path style="opacity:0.787" fill="#a9aec3" d="M 229.5,453.5 C 231.833,453.5 234.167,453.5 236.5,453.5C 236.5,455.833 236.5,458.167 236.5,460.5C 234.167,460.5 231.833,460.5 229.5,460.5C 229.5,458.167 229.5,455.833 229.5,453.5 Z"/></g>
<g><path style="opacity:0.787" fill="#a9aec3" d="M 245.5,453.5 C 247.833,453.5 250.167,453.5 252.5,453.5C 252.5,455.833 252.5,458.167 252.5,460.5C 250.167,460.5 247.833,460.5 245.5,460.5C 245.5,458.167 245.5,455.833 245.5,453.5 Z"/></g>
<g><path style="opacity:0.787" fill="#a9aec3" d="M 261.5,453.5 C 263.833,453.5 266.167,453.5 268.5,453.5C 268.5,455.833 268.5,458.167 268.5,460.5C 266.167,460.5 263.833,460.5 261.5,460.5C 261.5,458.167 261.5,455.833 261.5,453.5 Z"/></g>
</svg>
