<?xml version="1.0" ?><!DOCTYPE svg  PUBLIC '-//W3C//DTD SVG 1.1//EN'  'http://www.w3.org/Graphics/SVG/1.1/DTD/svg11.dtd'><svg xmlns="http://www.w3.org/2000/svg" xmlns:xlink="http://www.w3.org/1999/xlink" xml:space="preserve" width="512px" height="512px" style="shape-rendering:geometricPrecision; text-rendering:geometricPrecision; image-rendering:optimizeQuality; fill-rule:evenodd; clip-rule:evenodd" viewBox="0 0 512 512"><defs><style type="text/css">
   <![CDATA[
    .fil0 {fill:black}
   ]]>
</style></defs><g id="Layer_x0020_1"><g id="_283926144"><path id="_283925736" class="fil0" d="M247.301 375.4l-241.3 0c-3.30001,0 -6.00002,-2.70001 -6.00002,-6.00002l0 -129.998c0,-69.7998 56.8006,-126.6 126.6,-126.6l0 0c69.7998,0 126.6,56.8006 126.6,126.6l0 129.998c0.0992129,3.30001 -2.6008,6.00002 -5.90081,6.00002zm-33.7005 -23.3009c-8.89963,0 -16.2,-7.30042 -16.2,-16.2 0,-8.89963 7.30042,-16.2 16.2,-16.2 8.89963,0 16.2,7.30042 16.2,16.2 0,8.90081 -7.20002,16.2 -16.2,16.2zm0 -20.4993c-2.29961,0 -4.20001,1.9004 -4.20001,4.20001 0,2.29961 1.9004,4.20001 4.20001,4.20001 2.29961,0 4.20001,-1.9004 4.20001,-4.20001 0,-2.30079 -1.89922,-4.20001 -4.20001,-4.20001zm-86.9991 -50.8998c-20.2005,0 -36.6001,-16.3997 -36.6001,-36.5989 0,-20.2005 16.3997,-36.6001 36.6001,-36.6001 20.2005,0 36.6001,16.3997 36.6001,36.6001 0.0992129,20.1981 -16.4008,36.5989 -36.6001,36.5989zm0 -61.199c-13.6004,0 -24.6001,11.1 -24.6001,24.6001 0,13.5993 11.1,24.5989 24.6001,24.5989 13.6004,0 24.6001,-10.9996 24.6001,-24.5989 0.0992129,-13.6004 -11.0008,-24.6001 -24.6001,-24.6001zm0 101.198c-42.1997,0 -76.5994,-34.3997 -76.5994,-76.5983 0,-42.1997 34.3997,-76.5994 76.5994,-76.5994 42.1997,0 76.5994,34.3997 76.5994,76.5994 0,42.1986 -34.2993,76.5983 -76.5994,76.5983zm0 -141.199c-35.5997,0 -64.5994,28.9997 -64.5994,64.5994 0,35.5985 28.9997,64.5982 64.5994,64.5982 35.5997,0 64.5994,-28.9997 64.5994,-64.5982 0,-35.5997 -28.8993,-64.5994 -64.5994,-64.5994z"/><path id="_283925592" class="fil0" d="M506 375.4l-16.9276 0 0 -35.7001c0,-3.30001 -2.70001,-6.00002 -6.00002,-6.00002 -3.30001,0 -6.00002,2.70001 -6.00002,6.00002l0 35.7001 -26.4001 0 0 -23.2997c0,-3.30001 -2.70001,-6.00002 -6.00002,-6.00002 -3.30001,0 -6.00002,2.70001 -6.00002,6.00002l0 23.2997 -26.4001 0 0 -35.7001c0,-3.30001 -2.70001,-6.00002 -6.00002,-6.00002 -3.30001,0 -6.00002,2.70001 -6.00002,6.00002l0 35.7001 -26.4993 0 0 -23.2997c0,-3.30001 -2.70001,-6.00002 -6.00002,-6.00002 -3.30001,0 -6.00002,2.70001 -6.00002,6.00002l0 23.2997 -26.4001 0 0 -35.7001c0,-3.30001 -2.70001,-6.00002 -6.00002,-6.00002 -3.30001,0 -6.00002,2.70001 -6.00002,6.00002l0 35.7001 -26.4001 0 0 -23.2997c0,-3.30001 -2.70001,-6.00002 -6.00002,-6.00002 -3.30001,0 -6.00002,2.70001 -6.00002,6.00002l0 23.2997 -22.9264 0c0.744097,-1.85434 1.15512,-3.88111 1.15512,-6.00002l0 -88.0999 242.799 0c3.30001,0 6.00002,2.70001 6.00002,6.00002l0 82.0999c0,3.30001 -2.70001,6.00002 -6.00002,6.00002z"/><path id="_283926264" class="fil0" d="M506 399.2c-3.30001,0 -6.00002,-2.70001 -6.00002,-6.00002l0 -23.8005c0,-3.30001 2.70001,-6.00002 6.00002,-6.00002 3.30001,0 6.00002,2.70001 6.00002,6.00002l0 23.8005c0,3.30001 -2.70001,6.00002 -6.00002,6.00002z"/></g></g></svg>