<svg width="21" height="22" viewBox="0 0 21 22" fill="none" xmlns="http://www.w3.org/2000/svg">
<g clip-path="url(#clip0_2197_1013)">
<path d="M20.1372 19.7464L17.3122 16.9214C18.8599 15.0285 19.6209 12.6132 19.4377 10.175C19.2545 7.73674 18.1412 5.46221 16.328 3.82184C14.5148 2.18147 12.1405 1.30075 9.69619 1.36187C7.25186 1.42298 4.92454 2.42125 3.1956 4.15019C1.46666 5.87913 0.468393 8.20646 0.407277 10.6508C0.346162 13.0951 1.22688 15.4694 2.86725 17.2826C4.50762 19.0958 6.78215 20.2091 9.22037 20.3923C11.6586 20.5755 14.0739 19.8145 15.9668 18.2668L18.7918 21.0918C18.9712 21.2651 19.2116 21.361 19.4611 21.3589C19.7106 21.3567 19.9492 21.2566 20.1256 21.0802C20.302 20.9038 20.4021 20.6651 20.4043 20.4157C20.4064 20.1662 20.3105 19.9258 20.1372 19.7464ZM9.94963 18.5161C8.44413 18.5161 6.97245 18.0697 5.72068 17.2333C4.46891 16.3969 3.49327 15.2081 2.91715 13.8172C2.34102 12.4263 2.19028 10.8958 2.48399 9.41921C2.77769 7.94264 3.50266 6.58633 4.5672 5.52179C5.63174 4.45725 6.98805 3.73228 8.46462 3.43858C9.94118 3.14487 11.4717 3.29561 12.8626 3.87174C14.2535 4.44786 15.4423 5.4235 16.2787 6.67527C17.1151 7.92704 17.5615 9.39872 17.5615 10.9042C17.5593 12.9223 16.7566 14.8571 15.3295 16.2841C13.9025 17.7112 11.9677 18.5138 9.94963 18.5161Z" fill="#696969"/>
</g>
<defs>
<clipPath id="clip0_2197_1013">
<rect width="20.5962" height="21.1232" fill="white" transform="translate(0.404297 0.358887)"/>
</clipPath>
</defs>
</svg>
