<svg width="41" height="38" viewBox="0 0 41 38" fill="none" xmlns="http://www.w3.org/2000/svg">
<path d="M37.6433 6.90873L33.5484 5.76685L27.8008 15.0456C27.5674 15.4236 27.2531 15.7373 26.8837 15.9607C26.5143 16.1842 26.1003 16.3111 25.6758 16.3311L27.9627 31.8722C28.0282 32.3193 27.9939 32.7766 27.8627 33.207C27.7314 33.6375 27.5069 34.0289 27.2071 34.3499L26.5866 35.0106H40.4766V10.8156C40.4784 9.92201 40.2009 9.05323 39.688 8.34595C39.1751 7.63868 38.4558 7.13308 37.6433 6.90873Z" fill="#012171"/>
<path d="M14.8077 16.3311C14.3831 16.3112 13.9691 16.1842 13.5997 15.9608C13.2303 15.7373 12.9159 15.4236 12.6826 15.0456L6.93495 5.76685L2.84009 6.90873C2.0269 7.13274 1.30668 7.63803 0.792593 8.3452C0.278508 9.05238 -0.000293345 9.92134 2.31614e-07 10.8156V35.0106H13.8902L13.2696 34.3499C12.9699 34.029 12.7453 33.6375 12.614 33.207C12.4828 32.7766 12.4485 32.3193 12.514 31.8722L14.8077 16.3311Z" fill="#012171"/>
<path d="M22.9377 14.5429L20.2392 10.6792L17.5408 14.5501L17.7095 15.1677L15.1797 32.3175L20.2392 37.7038L25.2988 32.3175L22.769 15.1677L22.9377 14.5429Z" fill="#012171"/>
<path d="M29.9989 0L20.2412 5.86711L25.5492 13.4656L31.6252 3.65495L29.9989 0Z" fill="#012171"/>
<path d="M8.85742 3.65495L14.9334 13.4656L20.2414 5.86711L10.4838 0L8.85742 3.65495Z" fill="#012171"/>
</svg>
