<svg width="51" height="51" viewBox="0 0 51 51" fill="none" xmlns="http://www.w3.org/2000/svg">
<path d="M26.0879 25.6366V30.0741H35.0254C34.0254 29.0116 33.4629 27.4491 33.4629 25.6366C33.4629 22.5741 31.5879 21.1991 29.7754 21.1991C28.8379 21.1991 27.9004 21.5741 27.2754 22.2616C26.5254 23.0116 26.0879 24.1991 26.0879 25.6366ZM35.3379 25.6366C35.3379 27.0741 35.7754 28.2616 36.5879 29.0741C37.2754 29.7616 38.2129 30.1366 39.2129 30.1366C41.0879 30.1366 43.0879 28.6991 43.0879 25.6366V5.5741H40.1504V9.7616C40.1504 10.2616 39.7129 10.6991 39.2129 10.6991C38.7129 10.6991 38.2754 10.2616 38.2754 9.7616V5.5741H35.5879V9.7616C35.5879 10.2616 35.1504 10.6991 34.6504 10.6991C34.1504 10.6991 33.7129 10.2616 33.7129 9.7616V5.5741H30.7754V9.7616C30.7754 10.2616 30.3379 10.6991 29.8379 10.6991C29.3379 10.6991 28.9004 10.2616 28.9004 9.7616V5.5741H25.9629V19.3866H29.4004V19.3241C29.6504 19.3241 29.5254 19.3241 29.5879 19.3241C31.0254 19.3241 32.4629 19.8866 33.4629 20.9491C34.7129 22.0741 35.3379 23.6991 35.3379 25.6366ZM21.5254 41.0741V45.3866H24.2129V25.6366C24.2129 23.6991 24.8379 22.3241 25.7754 21.2616H11.1504C9.40039 21.2616 7.46289 22.6366 7.46289 25.6366V45.4491H10.4004V41.1366C10.4004 40.6366 10.8379 40.1991 11.3379 40.1991C11.8379 40.1991 12.2754 40.6366 12.2754 41.1366V45.4491H14.9629V41.1366C14.9629 40.6366 15.4004 40.1991 15.9004 40.1991C16.4004 40.1991 16.8379 40.6366 16.8379 41.1366V45.4491H19.7754V41.1366C19.7754 40.6366 20.2129 40.1991 20.7129 40.1991C21.1504 40.1991 21.5254 40.5741 21.5254 41.0741Z" fill="white"/>
</svg>
