<svg width="20" height="20" viewBox="0 0 30 30" fill="none" xmlns="http://www.w3.org/2000/svg">
<path d="M5.31738 0L5.71289 0.0164745L6.03516 0.0494234L6.48926 0.131796L6.92871 0.263591L7.33887 0.428336L7.61719 0.560132L7.86621 0.708402L8.02734 0.807249L8.24707 0.955519L8.4668 1.12026L8.73047 1.35091L8.8916 1.49918L9.14063 1.76277L9.31641 1.96046L9.41895 2.09226L9.62402 2.37232L9.77051 2.60297L9.93164 2.88303L10.1074 3.22899L10.2832 3.64086L10.4297 4.06919L10.5469 4.49753L10.6201 4.85997L10.6934 5.40362L10.7227 5.88138V6.14498L10.708 6.52389L10.6494 7.05107L10.5615 7.51236L10.4443 7.95717L10.3125 8.35255L10.1953 8.64909L10.0342 9.01153L10.0488 9.07743L13.5645 11.8451L13.667 11.9275L13.7402 11.911L16.377 9.83526L16.626 9.63756L16.9629 9.37397L17.2119 9.17628L17.5488 8.91268L17.7979 8.71499L22.7783 4.79407L23.0273 4.59638L23.2617 4.41516L23.5254 4.20099L23.877 3.9374L24.0234 3.82208L24.3164 3.62438L24.7266 3.41021L25.21 3.22899L25.5322 3.14662L25.8105 3.0972L26.1621 3.06425H26.543L26.8945 3.0972L27.2607 3.1631L27.6123 3.26194L27.9932 3.41021L28.3594 3.59143L28.6963 3.8056L28.8721 3.9374L29.0918 4.11862L29.2822 4.29984L29.3994 4.41516L29.4727 4.48105L29.5752 4.61285L29.7217 4.77759L29.9121 5.05766L30 5.18946L29.9707 5.25535L29.751 5.4201L29.4141 5.68369L29.165 5.88138L28.8281 6.14498L28.5791 6.34267L28.2422 6.60626L27.9932 6.80395L27.6563 7.06755L27.4072 7.26524L27.0703 7.52883L26.8213 7.72652L26.4844 7.99012L26.2354 8.18781L25.8984 8.4514L25.6494 8.64909L25.3125 8.91268L25.0635 9.11038L24.7266 9.37397L24.4775 9.57166L24.1406 9.83526L23.8916 10.0329L19.4971 13.4926L19.248 13.6903L18.0322 14.6458L17.7832 14.8435L17.6367 14.9588L17.5928 15.0082L17.8271 15.2059L18.0615 15.3872L18.3105 15.5848L18.6475 15.8484L18.8965 16.0461L19.2334 16.3097L19.4824 16.5074L19.8193 16.771L20.0684 16.9687L20.4053 17.2323L20.8447 17.5783L21.0938 17.7759L21.4307 18.0395L21.6797 18.2372L22.0166 18.5008L22.2656 18.6985L22.6025 18.9621L22.8516 19.1598L23.1885 19.4234L23.4375 19.6211L23.7744 19.8847L24.0234 20.0824L24.3604 20.346L24.6094 20.5437L24.9463 20.8072L25.1953 21.0049L29.2969 24.2339L29.7949 24.6293L30 24.7776L29.9854 24.86H29.9561L29.9268 24.9423L29.6631 25.3048L29.3262 25.6837L29.165 25.832L28.9307 26.0297L28.7109 26.1944L28.374 26.4086L28.0078 26.5898L27.5684 26.7545L27.2021 26.8534L26.8066 26.9193L26.6162 26.9357H26.0742L25.7666 26.9028L25.3711 26.8204L24.9902 26.7051L24.6094 26.5404L24.2285 26.3262L23.877 26.0791L23.584 25.8484L23.335 25.6507L22.998 25.3871L22.749 25.1895L22.4121 24.9259L22.1631 24.7282L17.3291 20.9226L17.0801 20.7249L16.8018 20.5107L16.5381 20.2965L16.3037 20.1153L16.0547 19.9176L14.0039 18.3031L13.7549 18.1054L13.6816 18.0725L13.4033 18.2867L13.1396 18.5008L12.8613 18.715L12.5977 18.9292L12.4072 19.0774L12.1729 19.2586L11.6748 19.654L11.3965 19.8682L11.1328 20.0824L10.8984 20.2636L10.3125 20.7249L10.0635 20.9226L10.0195 20.972L10.2686 21.5321L10.459 22.0923L10.5762 22.5535L10.6641 23.0643L10.708 23.4761L10.7227 23.8221V24.1351L10.6934 24.6128L10.6348 25.0577L10.5469 25.5189L10.415 25.9967L10.2539 26.4415L10.0781 26.8534L9.8877 27.2158L9.77051 27.4135L9.53613 27.7595L9.375 27.9736L9.31641 28.056H9.28711L9.25781 28.1219L9.02344 28.3855L8.90625 28.5008L8.70117 28.6985L8.54004 28.8303L8.34961 28.9786L8.11523 29.1433L7.91016 29.2751L7.63184 29.4399L7.35352 29.5717L6.9873 29.7199L6.62109 29.8353L6.16699 29.9341L5.81543 29.9835L5.63965 30H5.05371L4.62891 29.9506L4.27734 29.8847L3.91113 29.7858L3.38379 29.5881L2.90039 29.341L2.56348 29.1269L2.25586 28.8962L2.02148 28.6985L1.83105 28.5173L1.64063 28.3196L1.37695 28.0231L1.27441 27.8913L1.09863 27.6442L0.9375 27.397L0.732422 27.0346L0.600586 26.771L0.410156 26.3262L0.263672 25.8814L0.161133 25.486L0.0878906 25.1236L0.0292969 24.7446V24.6787H0V23.3443L0.0439453 23.0972L0.117188 22.6689L0.205078 22.2735L0.366211 21.7463L0.527344 21.3344L0.688477 20.9885L0.849609 20.6919L1.08398 20.313L1.24512 20.0988L1.37695 19.9176L1.46484 19.8023H1.49414L1.52344 19.7364H1.55273V19.7035L1.66992 19.5881L1.78711 19.4563L1.94824 19.3081L2.21191 19.0774L2.43164 18.9127L2.90039 18.5997L3.25195 18.4185L3.61816 18.2537L4.14551 18.089L4.36523 18.0395L4.89258 17.9572L5.34668 17.9407L5.80078 17.9572L6.35742 18.0395L6.67969 18.1219L7.08984 18.2537L7.51465 18.4514L7.69043 18.5338L7.79297 18.5173L8.0127 18.3361L8.24707 18.1549L12.0557 15.1565L12.2314 15.0247L12.2168 14.9753L11.9824 14.7941L11.7334 14.5964L11.3965 14.3328L11.1475 14.1351L10.8105 13.8715L10.5615 13.6738L10.2246 13.4102L9.97559 13.2125L9.63867 12.9489L9.38965 12.7512L8.21777 11.8287L7.96875 11.631L7.76367 11.4662L7.67578 11.4827L7.17773 11.7133L6.79688 11.8451L6.37207 11.9605L5.84473 12.0428L5.69824 12.0593H4.95117L4.30664 11.9605L3.79395 11.8122L3.48633 11.6969L3.04688 11.4827L2.8125 11.3509L2.37305 11.0544L2.18262 10.9061L1.81641 10.5766L1.66992 10.4119L1.55273 10.2965L1.43555 10.1647L1.33301 10.0329L1.20117 9.8682L1.05469 9.65404L0.922852 9.43987L0.776367 9.19275L0.571289 8.78089L0.439453 8.46787L0.322266 8.13839L0.205078 7.743L0.102539 7.28171L0.0146484 6.70511L0 6.67216V5.38715L0.0292969 5.27183L0.117188 4.7117L0.234375 4.21746L0.395508 3.72323L0.600586 3.24547L0.717773 2.99835L0.922852 2.63591L1.04004 2.4547L1.20117 2.22405L1.33301 2.04283L1.40625 1.94399H1.43555L1.46484 1.87809L1.72852 1.58155L1.88965 1.43328L2.09473 1.23558L2.3291 1.05437L2.54883 0.889621L2.91504 0.658979L3.19336 0.510708L3.55957 0.345964L3.98438 0.197694L4.48242 0.0823723L4.80469 0.0329489L5.31738 0ZM5.18555 2.94893L4.81934 2.99835L4.54102 3.08072L4.29199 3.17957L4.05762 3.31137L3.85254 3.44316L3.66211 3.60791L3.45703 3.8056L3.33984 3.9374L3.20801 4.11862L3.09082 4.28336L2.95898 4.53048L2.8418 4.77759L2.75391 5.04119L2.65137 5.45305L2.60742 5.88138V6.22735L2.65137 6.65568L2.72461 6.9687L2.82715 7.29819L2.98828 7.64415L3.09082 7.82537L3.25195 8.05601L3.42773 8.27018L3.60352 8.4514L3.75 8.5832L3.94043 8.71499L4.11621 8.83031L4.29199 8.92916L4.73145 9.07743L4.84863 9.11038L5.21484 9.1598H5.50781L5.96191 9.0939L6.38672 8.94563L6.66504 8.79736L6.94336 8.61614L7.14844 8.41845L7.29492 8.28666L7.42676 8.13839L7.54395 7.97364L7.67578 7.77595L7.79297 7.5453L7.91016 7.28171L7.96875 7.11697L8.07129 6.72158L8.11523 6.34267L8.12988 6.17792V5.93081L8.07129 5.38715L7.93945 4.90939L7.77832 4.53048L7.66113 4.29984L7.4707 4.03624L7.33887 3.85502L7.13379 3.65733L6.88477 3.44316L6.47461 3.19605L6.03516 3.0313L5.81543 2.98188L5.53711 2.94893H5.18555ZM5.15625 20.8567L4.80469 20.9061L4.43848 21.0214L4.21875 21.1203L3.86719 21.3344L3.67676 21.4992L3.47168 21.6969L3.39844 21.7792L3.25195 21.9605L3.09082 22.1911L2.98828 22.3723L2.90039 22.5535L2.8125 22.7512L2.68066 23.2125L2.63672 23.4596L2.60742 23.7891V24.1186L2.65137 24.5634L2.75391 24.9753L2.8418 25.2389L3.01758 25.6013L3.12012 25.7825L3.31055 26.0297L3.44238 26.1944L3.58887 26.3427L3.73535 26.4745L3.94043 26.6227L4.30664 26.8369L4.7168 26.9852L4.99512 27.0346L5.30273 27.0675H5.44922L5.88867 27.0181L6.34277 26.8699L6.57715 26.7545L6.87012 26.5733L7.03125 26.4415L7.23633 26.2438L7.35352 26.1285L7.5293 25.8979L7.64648 25.7331L7.79297 25.453L7.91016 25.1895L7.9834 24.9588L8.08594 24.5634L8.12988 24.1021V23.8385L8.08594 23.3937L8.02734 23.1301L7.89551 22.6853L7.69043 22.257L7.55859 22.0593L7.39746 21.8451L7.30957 21.7298L7.14844 21.5815L6.97266 21.4168L6.75293 21.2685L6.41602 21.0708L5.99121 20.9226L5.71289 20.8731L5.58105 20.8567H5.15625Z" fill="white"/>
</svg>
